<svg width="107" height="20" viewBox="0 0 107 20" fill="none" xmlns="http://www.w3.org/2000/svg">
<g clip-path="url(#clip0_241_1470)">
<path d="M7.90476 3.29914C7.97656 3.25029 8.05733 3.21616 8.1424 3.1987C8.22746 3.18125 8.31514 3.18083 8.40038 3.19746C8.48561 3.21409 8.5667 3.24744 8.63897 3.2956C8.71123 3.34375 8.77324 3.40574 8.82141 3.478L9.84984 4.99829C9.87498 5.03426 9.90844 5.06364 9.94736 5.08392C9.98628 5.10421 10.0295 5.1148 10.0734 5.1148C10.1173 5.1148 10.1605 5.10421 10.1995 5.08392C10.2384 5.06364 10.2718 5.03426 10.297 4.99829L12.0095 2.69102C12.1275 2.52332 12.1978 2.32682 12.2131 2.12236C12.2284 1.9179 12.1881 1.71312 12.0964 1.52974C12.0047 1.34636 11.8651 1.19122 11.6923 1.08078C11.5196 0.970335 11.3202 0.908713 11.1153 0.902447H3.37072C3.31811 0.900611 3.26609 0.91404 3.22094 0.941114C3.17579 0.968187 3.13944 1.00775 3.11628 1.05502C3.09311 1.10229 3.08413 1.15526 3.0904 1.20753C3.09667 1.2598 3.11793 1.30914 3.15162 1.34959L5.93286 5.13243C6.01636 5.24652 6.05147 5.38896 6.03053 5.52878C6.0096 5.66861 5.93433 5.79453 5.82107 5.87916L5.67351 5.98648C5.55888 6.06951 5.41607 6.10388 5.27621 6.08211C5.13635 6.06033 5.01075 5.98417 4.92678 5.87022L1.31833 0.94269C1.30707 0.92583 1.29175 0.912078 1.27378 0.9027C1.2558 0.893323 1.23576 0.888622 1.21549 0.889032C1.00616 0.890888 0.801445 0.95079 0.624135 1.06207C0.446825 1.17336 0.30387 1.33166 0.211179 1.51936C0.118487 1.70706 0.0796952 1.91679 0.0991192 2.12523C0.118543 2.33367 0.195421 2.53263 0.321199 2.69997L5.24873 9.349C5.3539 9.49138 5.49102 9.6071 5.64906 9.68684C5.8071 9.76658 5.98165 9.80812 6.15867 9.80812C6.33568 9.80812 6.51023 9.76658 6.66827 9.68684C6.82631 9.6071 6.96343 9.49138 7.0686 9.349L9.11205 6.59906C9.14584 6.55303 9.16405 6.49742 9.16405 6.44033C9.16405 6.38323 9.14584 6.32762 9.11205 6.28159L7.72591 4.21578C7.6296 4.07005 7.59438 3.89232 7.62784 3.72088C7.66129 3.54943 7.76074 3.39798 7.90476 3.29914Z" fill="#DB5B2C"/>
<path d="M22.2216 2.93249C21.9198 2.65389 21.5657 2.43806 21.1798 2.29754C20.6963 2.11206 20.1817 2.02098 19.6639 2.02926C19.1149 1.98749 18.5658 2.10882 18.0855 2.37803C17.9261 2.48242 17.7963 2.62613 17.7085 2.79531C17.6208 2.96448 17.5782 3.15341 17.5847 3.34386C17.5775 3.53568 17.6307 3.72492 17.7367 3.88491C17.8511 4.04748 18.005 4.17828 18.1839 4.26498C18.4283 4.38865 18.6865 4.48319 18.953 4.54668L20.0395 4.80602C20.5269 4.91334 20.9696 5.02959 21.381 5.1548C21.7342 5.26614 22.071 5.42403 22.3826 5.6243C22.6484 5.79909 22.8666 6.03726 23.0175 6.31737C23.1738 6.62597 23.2507 6.9687 23.2411 7.3145C23.2498 7.70744 23.1558 8.09584 22.9683 8.44131C22.7937 8.75714 22.5433 9.02453 22.2395 9.21934C21.9069 9.43201 21.5389 9.58345 21.1529 9.66648C20.7123 9.7627 20.2625 9.81068 19.8115 9.80957C19.1096 9.81381 18.4113 9.70974 17.7412 9.50104C17.101 9.30071 16.4971 8.99876 15.9526 8.60675L16.5563 7.52466C16.9478 7.87408 17.4034 8.14436 17.8977 8.32058C18.5236 8.56181 19.19 8.68022 19.8607 8.66935C20.3795 8.6948 20.8963 8.58867 21.3631 8.36082C21.5283 8.27744 21.667 8.14952 21.7634 7.99149C21.8598 7.83346 21.9101 7.65163 21.9086 7.46653C21.9154 7.25616 21.8543 7.04919 21.7342 6.8763C21.5943 6.7002 21.4152 6.55931 21.2111 6.46493C20.9389 6.33385 20.6543 6.23049 20.3615 6.1564C20.0261 6.06697 19.646 5.97307 19.2078 5.8747C18.7833 5.78617 18.365 5.66965 17.9558 5.52592C17.6361 5.42477 17.3343 5.27387 17.0616 5.07878C16.8322 4.90998 16.6479 4.6873 16.525 4.43042C16.3968 4.15011 16.3341 3.84428 16.3417 3.53613C16.333 3.14766 16.4221 2.76324 16.601 2.41827C16.7745 2.09739 17.0193 1.82052 17.3164 1.60894C17.6199 1.36961 17.9636 1.18639 18.3314 1.0679C18.7694 0.95407 19.2204 0.898444 19.6729 0.902453C20.2606 0.894955 20.8455 0.98563 21.4033 1.17074C21.9026 1.3383 22.372 1.58433 22.7939 1.89958L22.2216 2.93249Z" fill="#045D67"/>
<path d="M25.6514 9.71119V0.965049H29.6757C30.0809 0.960512 30.4822 1.04444 30.8517 1.21098C31.2001 1.36821 31.5169 1.58796 31.7862 1.85934C32.0433 2.11751 32.2509 2.42061 32.3988 2.75363C32.5399 3.07659 32.6129 3.42515 32.6134 3.77759C32.6173 4.51484 32.3352 5.22489 31.8264 5.75843C31.5736 6.02753 31.2695 6.2434 30.9321 6.39338C30.5681 6.55622 30.1728 6.63712 29.774 6.63037H26.9078V9.71119H25.6514ZM26.9078 5.50356H29.6533C29.8762 5.51392 30.0986 5.47523 30.3049 5.39025C30.5112 5.30526 30.6963 5.17604 30.8472 5.0117C31.1472 4.67716 31.3073 4.24017 31.2943 3.791C31.2986 3.56269 31.256 3.33592 31.1691 3.12476C31.0809 2.9225 30.9549 2.73888 30.798 2.58371C30.6379 2.43318 30.4515 2.31343 30.248 2.23047C30.0403 2.14109 29.8168 2.09397 29.5907 2.09185H26.9078V5.50356Z" fill="#045D67"/>
<path d="M34.9565 9.71119V0.965052H39.0837C39.4889 0.960082 39.8904 1.04403 40.2597 1.21098C40.9493 1.517 41.4974 2.07303 41.7934 2.76704C41.9345 3.09001 42.0075 3.43857 42.008 3.791C42.0074 4.08306 41.959 4.37304 41.8649 4.64952C41.6722 5.2012 41.3108 5.67831 40.832 6.01331C40.5862 6.18271 40.3121 6.30688 40.0227 6.37997L42.3389 9.71119H40.8812L38.7215 6.63037H36.2264V9.71119H34.9565ZM36.2264 5.50357H39.0837C39.3142 5.50673 39.5428 5.46101 39.7544 5.36942C39.9491 5.28177 40.1241 5.15552 40.2686 4.99829C40.4105 4.84266 40.5227 4.66231 40.5995 4.46619C40.6807 4.25662 40.7216 4.03363 40.7202 3.80889C40.7253 3.57385 40.6796 3.34048 40.5861 3.12476C40.5 2.9202 40.372 2.73591 40.2105 2.58371C40.0523 2.43291 39.8673 2.31309 39.665 2.23047C39.4575 2.14072 39.2337 2.09504 39.0077 2.09633H36.2264V5.50357Z" fill="#045D67"/>
<path d="M44.7397 9.71118V0.965042H46.0096V9.71118H44.7397Z" fill="#045D67"/>
<path d="M50.4232 3.33043V9.71118H49.1533V0.965042H50.1594L56.0349 7.47546V0.965042H57.3048V9.71118H56.2406L50.4232 3.33043Z" fill="#045D67"/>
<path d="M67.1105 8.58439C66.7378 8.96382 66.2931 9.26491 65.8024 9.46994C65.3117 9.67497 64.785 9.7798 64.2532 9.77826C63.6452 9.78247 63.0437 9.65271 62.4915 9.39819C61.434 8.90858 60.5981 8.0408 60.1484 6.96573C59.9238 6.4384 59.8082 5.87106 59.8086 5.29788C59.8079 4.14913 60.2611 3.04663 61.0695 2.23047C61.4743 1.81871 61.9539 1.48788 62.4825 1.2557C63.0478 1.01538 63.6569 0.895087 64.2711 0.902453C65.0612 0.872947 65.845 1.05347 66.5426 1.42561C67.1177 1.74918 67.5903 2.22796 67.9064 2.80729L66.9227 3.50483C66.673 3.03165 66.2844 2.64623 65.8093 2.40039C65.3189 2.15791 64.7779 2.03531 64.2309 2.04267C63.7847 2.03651 63.343 2.13128 62.9386 2.3199C62.5639 2.49654 62.228 2.7458 61.9504 3.05322C61.6812 3.36296 61.4733 3.72107 61.3378 4.10848C61.1907 4.50488 61.115 4.92423 61.1143 5.34707C61.1142 5.7822 61.1977 6.21331 61.3602 6.61696C61.5192 7.00843 61.7548 7.36417 62.0533 7.66327C62.3496 7.96224 62.7001 8.20201 63.0862 8.36976C63.4896 8.55005 63.9276 8.64008 64.3695 8.63358C64.8985 8.61678 65.418 8.48863 65.8942 8.25749C66.3703 8.02635 66.7924 7.69742 67.1328 7.29214V6.25477H65.0849V5.31577H68.2149V9.71119H67.1328L67.1105 8.58439Z" fill="#045D67"/>
<path d="M70.8936 9.71119V0.965048H74.2427C74.9332 0.949916 75.6204 1.06521 76.2682 1.30488C76.8113 1.50986 77.3061 1.825 77.7214 2.23047C78.1172 2.6199 78.4225 3.0916 78.6157 3.61214C78.8137 4.15651 78.9122 4.73206 78.9064 5.31129C78.9136 5.92334 78.8012 6.53091 78.5755 7.09987C78.3616 7.63305 78.0345 8.11346 77.6169 8.50795C77.1992 8.90243 76.701 9.20159 76.1564 9.38477C75.541 9.59671 74.8936 9.70108 74.2427 9.6933L70.8936 9.71119ZM77.6007 5.31576C77.6041 4.87326 77.5268 4.43385 77.3727 4.01904C77.2294 3.63698 77.0069 3.28954 76.7198 2.99955C76.4214 2.70691 76.065 2.47996 75.6735 2.33331C75.2149 2.16831 74.73 2.08801 74.2427 2.09632H72.1634V8.58438H74.2427C74.7382 8.59446 75.2312 8.51102 75.6959 8.33845C76.09 8.19083 76.4471 7.95887 76.7422 7.6588C77.0267 7.36154 77.2434 7.00608 77.3771 6.61695C77.5229 6.19877 77.5955 5.7586 77.5918 5.31576H77.6007Z" fill="#045D67"/>
<path d="M80.0688 9.71118L84.0082 0.965042H85.0366L88.9625 9.71118H87.6211L86.5077 7.25189H82.5371L81.4595 9.71118H80.0688ZM84.5403 2.55688L82.8411 6.16086H86.2081L84.5403 2.55688Z" fill="#045D67"/>
<path d="M91.0908 9.71118V0.965042H92.3607V8.56649H97.3956V9.6933L91.0908 9.71118Z" fill="#045D67"/>
<path d="M106.079 8.58438V9.71118H99.5376V0.965042H105.954V2.09185H100.807V4.72552H105.279V5.77631H100.807V8.58438H106.079Z" fill="#045D67"/>
<path d="M58.181 14.8265L59.7773 18.4663L61.3647 14.8265H62.2948L60.144 19.6959H59.4017L57.251 14.8265H58.181Z" fill="#65C2B8"/>
<path d="M67.9424 18.9224V19.6959H64.249V14.8265H67.8754V15.5956H65.121V16.861H67.5042V17.572H65.121V18.9134L67.9424 18.9224Z" fill="#65C2B8"/>
<path d="M71.0139 16.4497V19.6959H70.1465V14.8265H70.8217L73.8578 18.1399V14.8265H74.7521V19.6959H74.0322L71.0139 16.4497Z" fill="#65C2B8"/>
<path d="M81.218 15.5956H79.4294V19.6959H78.5352V15.5956H76.7466V14.8265H81.1778L81.218 15.5956Z" fill="#65C2B8"/>
<path d="M85.4837 18.9492C85.7199 18.9565 85.9544 18.9074 86.1679 18.8061C86.3455 18.7216 86.4992 18.594 86.615 18.435C86.7272 18.2765 86.8063 18.0971 86.8475 17.9073C86.8892 17.7073 86.9101 17.5035 86.9101 17.2992V14.8265H87.8044V17.2992C87.8058 17.6183 87.7622 17.9359 87.6747 18.2427C87.5964 18.526 87.4593 18.7895 87.2723 19.0163C87.0796 19.2429 86.836 19.4207 86.5614 19.535C86.2299 19.6717 85.8734 19.7372 85.515 19.7272C85.1469 19.7401 84.7804 19.6713 84.4419 19.526C84.1676 19.405 83.9256 19.2212 83.7354 18.9894C83.5551 18.7586 83.4229 18.4941 83.3464 18.2114C83.2651 17.9202 83.223 17.6195 83.2212 17.3171V14.8265H84.0931V17.2992C84.0926 17.5053 84.1151 17.7108 84.1602 17.9118C84.206 18.1022 84.2863 18.2825 84.3972 18.4439C84.5133 18.6016 84.667 18.7276 84.8443 18.8106C85.0442 18.9046 85.2629 18.952 85.4837 18.9492Z" fill="#65C2B8"/>
<path d="M90.2188 19.6959V14.8265H92.5618C92.7929 14.8226 93.0219 14.87 93.2325 14.9651C93.4288 15.0568 93.6075 15.1825 93.7601 15.3363C93.9053 15.4836 94.022 15.6564 94.1044 15.846C94.1852 16.0308 94.2278 16.2301 94.2296 16.4318C94.2273 16.5838 94.2017 16.7346 94.1536 16.8789C94.1044 17.0257 94.0336 17.1644 93.9435 17.2903C93.8498 17.4159 93.7401 17.5286 93.617 17.6256C93.488 17.7219 93.3447 17.7974 93.1923 17.8492L94.4756 19.6825H93.474L92.3069 18.0236H91.0862V19.6825L90.2188 19.6959ZM91.0862 17.2724H92.5439C92.6515 17.2759 92.7586 17.2557 92.8575 17.2132C92.9564 17.1707 93.0448 17.107 93.1162 17.0265C93.2661 16.8654 93.3464 16.6517 93.3398 16.4318C93.342 16.3183 93.3207 16.2057 93.2772 16.1009C93.2335 16.002 93.1713 15.9125 93.0939 15.8371C93.0129 15.7647 92.9208 15.7058 92.8211 15.6627C92.7196 15.6183 92.61 15.5954 92.4992 15.5956H91.0862V17.2724Z" fill="#65C2B8"/>
<path d="M100.262 18.9224V19.6959H96.5684V14.8265H100.195V15.5956H97.4403V16.861H99.8236V17.572H97.4403V18.9134L100.262 18.9224Z" fill="#65C2B8"/>
<path d="M105.485 16.0517C105.412 15.99 105.334 15.9347 105.252 15.8862C105.146 15.8238 105.036 15.7699 104.921 15.7253C104.791 15.6732 104.656 15.6328 104.519 15.6045C104.371 15.5776 104.222 15.5642 104.072 15.5643C103.811 15.5456 103.551 15.6014 103.321 15.7253C103.244 15.7718 103.182 15.8377 103.139 15.9163C103.097 15.9948 103.076 16.0832 103.079 16.1724C103.077 16.2666 103.106 16.359 103.16 16.4362C103.224 16.5139 103.305 16.5765 103.397 16.6196C103.523 16.6824 103.657 16.7304 103.794 16.7626C103.955 16.8074 104.143 16.8521 104.362 16.9013C104.581 16.9504 104.863 17.0309 105.073 17.1025C105.265 17.1645 105.445 17.255 105.61 17.3708C105.754 17.4721 105.874 17.6051 105.959 17.7598C106.044 17.9349 106.086 18.1283 106.079 18.3232C106.09 18.5404 106.044 18.7566 105.944 18.9498C105.844 19.1431 105.695 19.3064 105.512 19.4232C105.322 19.5419 105.113 19.6266 104.894 19.6736C104.651 19.7269 104.402 19.7525 104.152 19.7496C103.757 19.752 103.364 19.6963 102.985 19.5841C102.626 19.48 102.285 19.32 101.975 19.1102L102.368 18.3545C102.457 18.4378 102.554 18.5112 102.659 18.5736C102.792 18.6497 102.931 18.7155 103.075 18.7703C103.24 18.8318 103.411 18.8797 103.584 18.9134C103.777 18.9538 103.973 18.9732 104.17 18.9715C104.417 18.9845 104.663 18.9353 104.886 18.8285C104.964 18.7909 105.031 18.7312 105.076 18.6565C105.121 18.5818 105.144 18.4954 105.14 18.4081C105.142 18.3063 105.109 18.2069 105.046 18.1264C104.967 18.0417 104.871 17.9733 104.765 17.9252C104.62 17.8607 104.471 17.8084 104.318 17.7687C104.143 17.724 103.942 17.6703 103.718 17.6212C103.49 17.5635 103.264 17.4934 103.043 17.411C102.87 17.35 102.709 17.2608 102.565 17.1472C102.44 17.0484 102.34 16.9211 102.274 16.7761C102.204 16.6188 102.17 16.4475 102.176 16.2753C102.171 16.054 102.223 15.8353 102.328 15.6403C102.428 15.4622 102.567 15.3093 102.735 15.1932C102.917 15.0626 103.122 14.9657 103.338 14.907C103.584 14.8428 103.836 14.8112 104.09 14.8131C104.428 14.8103 104.765 14.8631 105.087 14.9696C105.364 15.0652 105.627 15.1976 105.869 15.3631L105.485 16.0517Z" fill="#65C2B8"/>
</g>
<defs>
<clipPath id="clip0_241_1470">
<rect width="106" height="18.8561" fill="white" transform="translate(0.0791016 0.889038)"/>
</clipPath>
</defs>
</svg>
