<svg width="111" height="30" viewBox="0 0 111 30" fill="none" xmlns="http://www.w3.org/2000/svg">
<g clip-path="url(#clip0_240_578)">
<mask id="mask0_240_578" style="mask-type:luminance" maskUnits="userSpaceOnUse" x="0" y="0" width="111" height="30">
<path d="M110.04 0.766052H0.0395508V29.868H110.04V0.766052Z" fill="white"/>
</mask>
<g mask="url(#mask0_240_578)">
<path d="M14.612 29.868C22.6602 29.868 29.1845 23.3533 29.1845 15.317C29.1845 7.28075 22.6602 0.766052 14.612 0.766052C6.56387 0.766052 0.0395508 7.28075 0.0395508 15.317C0.0395508 23.3533 6.56387 29.868 14.612 29.868Z" fill="#BDF4BD"/>
<path d="M20.5108 25.6014C21.2769 24.8363 21.8983 23.9865 22.4005 23.0939C18.187 25.4484 12.816 24.9383 9.1133 21.5641C8.97711 21.4536 8.84092 21.3346 8.71325 21.2071C8.58556 21.0796 8.46639 20.9436 8.35573 20.8077C4.97649 17.1019 4.46578 11.7473 6.82358 7.5401C5.92132 8.04156 5.07012 8.66202 4.31255 9.42696C-0.164731 13.8976 -0.164731 21.1392 4.31255 25.6014C8.78133 30.072 16.0335 30.072 20.5108 25.6014Z" fill="#73E580"/>
<path d="M8.71315 5.02423C7.94707 5.78917 7.32569 6.63911 6.82349 7.53155C11.0369 5.18572 16.3994 5.69568 20.1106 9.06993C20.2469 9.18043 20.3831 9.29942 20.5107 9.42691C20.6384 9.5544 20.7575 9.69039 20.8682 9.82638C24.2389 13.5236 24.7582 18.8868 22.4004 23.0939C23.3026 22.5925 24.1539 21.972 24.9113 21.2071C29.3886 16.7365 29.3886 9.49492 24.9113 5.03272C20.4426 0.562042 13.1904 0.562043 8.71315 5.02423Z" fill="#73E580"/>
<path d="M8.71329 13.7786C9.53043 12.9627 10.5434 12.4782 11.5988 12.3082C11.7691 11.2543 12.2543 10.2344 13.0714 9.42692C14.9951 7.50606 18.0424 7.38706 20.1107 9.06994C16.3996 5.69569 11.0371 5.18572 6.82363 7.54006C4.46583 11.7473 4.97654 17.1018 8.35578 20.8077C6.67042 18.7422 6.78959 15.6995 8.71329 13.7786Z" fill="#33AF7C"/>
<path d="M20.8682 9.82642C22.5536 11.8918 22.4345 14.9346 20.5108 16.8554C19.6936 17.6714 18.6807 18.1558 17.6253 18.3259C17.455 19.3797 16.9698 20.3997 16.1527 21.2071C14.229 23.128 11.1817 23.2469 9.11328 21.5641C12.816 24.9299 18.187 25.4484 22.4005 23.0939C24.7583 18.8868 24.239 13.5237 20.8682 9.82642Z" fill="#33AF7C"/>
<path d="M17.6217 18.3208C18.4728 17.4711 17.8152 15.4369 16.1532 13.7773C14.4911 12.1177 12.4539 11.4612 11.6029 12.3109C10.752 13.1606 11.4095 15.1948 13.0715 16.8545C14.7336 18.5139 16.7708 19.1705 17.6217 18.3208Z" fill="#0B5364"/>
<path d="M16.1526 21.2071C16.9697 20.3912 17.455 19.3797 17.6252 18.3258C16.0164 18.5808 14.314 18.0964 13.0798 16.8554C11.837 15.6144 11.3518 13.9146 11.6072 12.3167C10.5517 12.4867 9.53029 12.9712 8.72164 13.7871C6.79795 15.708 6.67878 18.7508 8.36414 20.8161C8.48331 20.9521 8.59397 21.0881 8.72164 21.2156C8.84933 21.3431 8.98552 21.4535 9.12171 21.5726C11.1816 23.2469 14.2289 23.1279 16.1526 21.2071Z" fill="#008477"/>
<path d="M13.0714 9.42697C12.2543 10.2429 11.7691 11.2543 11.5989 12.3083C13.2076 12.0533 14.9101 12.5377 16.1442 13.7787C17.3785 15.0196 17.8722 16.7194 17.6168 18.3174C18.6724 18.1474 19.6937 17.6628 20.5024 16.8469C22.4261 14.926 22.5452 11.8833 20.8599 9.81795C20.7407 9.68196 20.6301 9.54596 20.5024 9.41848C20.3747 9.29098 20.2385 9.18048 20.1024 9.0615C18.0424 7.38711 14.9951 7.50611 13.0714 9.42697Z" fill="#008477"/>
<path d="M37.3814 10.9058V19.6262H35.6365V12.6482C35.6365 11.6878 36.4196 10.9058 37.3814 10.9058Z" fill="#09183D"/>
<path d="M47.264 10.9058V19.6262H45.9191L41.195 14.1525V17.8839C41.195 18.8442 40.4118 19.6262 39.45 19.6262V10.9058H40.7438L45.519 16.5325V10.9058H47.264Z" fill="#09183D"/>
<path d="M58.1508 10.9058L54.2183 19.6772H52.6095L48.6685 10.9058H49.4601C50.1496 10.9058 50.7709 11.3138 51.0517 11.9427L53.4097 17.3058L56.2356 10.9058H58.1508Z" fill="#09183D"/>
<path d="M61.1809 12.5292V14.5266H65.3433V16.1415H61.1809V18.0113H64.2368C65.1305 18.0113 65.8541 18.7338 65.8541 19.6262H59.436V10.9058H65.8541V12.5207H61.1809V12.5292Z" fill="#09183D"/>
<path d="M74.4256 13.5662H73.8297C73.2765 13.5662 72.7486 13.3197 72.4337 12.8607C72.1614 12.4782 71.6932 12.2573 70.9611 12.2573C69.9993 12.2573 69.3695 12.6312 69.3695 13.3452C69.3695 13.9741 69.8291 14.2461 70.6633 14.4077L71.6932 14.6117C73.4041 14.9601 74.3745 15.6145 74.3745 17.0509C74.3745 18.7083 73.0126 19.7792 70.9611 19.7792C68.8076 19.7792 67.3011 18.6233 67.1733 16.7534H68.9013C69.046 17.6628 69.8546 18.2323 71.0548 18.2323C72.0167 18.2323 72.5699 17.8839 72.5699 17.2719C72.5699 16.8895 72.3487 16.4899 71.4123 16.32L69.9993 16.0479C68.2629 15.7165 67.5053 14.8411 67.5053 13.4982C67.5053 11.8323 68.8247 10.7529 70.8164 10.7529C72.3061 10.7529 74.2212 11.3308 74.4256 13.5662Z" fill="#09183D"/>
<path d="M110.039 13.5662H109.444C108.89 13.5662 108.363 13.3197 108.048 12.8607C107.775 12.4782 107.307 12.2573 106.575 12.2573C105.613 12.2573 104.983 12.6312 104.983 13.3452C104.983 13.9741 105.443 14.2461 106.277 14.4077L107.307 14.6117C109.018 14.9601 109.988 15.6145 109.988 17.0509C109.988 18.7083 108.626 19.7792 106.575 19.7792C104.421 19.7792 102.915 18.6233 102.787 16.7534H104.524C104.668 17.6628 105.477 18.2323 106.677 18.2323C107.639 18.2323 108.192 17.8839 108.192 17.2719C108.192 16.8895 107.971 16.4899 107.035 16.32L105.622 16.0479C103.885 15.7165 103.128 14.8411 103.128 13.4982C103.128 11.8323 104.447 10.7529 106.439 10.7529C107.92 10.7529 109.835 11.3308 110.039 13.5662Z" fill="#09183D"/>
<path d="M81.4137 12.5292H80.0689V19.6347H78.3239V12.5292H75.3533V10.9144H83.031C83.031 11.7983 82.3074 12.5292 81.4137 12.5292Z" fill="#09183D"/>
<path d="M92.641 15.266C92.641 17.7819 90.6151 19.7792 88.0957 19.7792C85.5761 19.7792 83.5503 17.7819 83.5503 15.266C83.5503 12.7502 85.5761 10.7529 88.0957 10.7529C90.6067 10.7529 92.641 12.7587 92.641 15.266ZM90.8621 15.266C90.8621 13.6767 89.6789 12.3762 88.0871 12.3762C86.4955 12.3762 85.3123 13.6682 85.3123 15.266C85.3123 16.864 86.4955 18.1558 88.0871 18.1558C89.6873 18.1558 90.8621 16.864 90.8621 15.266Z" fill="#09183D"/>
<path d="M98.0209 16.864H96.2249V17.8923C96.2249 18.8528 95.4418 19.6346 94.48 19.6346V10.9058H98.1656C100.132 10.9058 101.579 12.0872 101.579 13.8806C101.579 15.0961 100.915 16.0309 99.868 16.507L102.141 19.6262H100.021L98.0209 16.864ZM96.2249 15.2405H98.0976C99.0594 15.2405 99.8594 14.7136 99.8594 13.8806C99.8594 13.0477 99.0594 12.5207 98.0976 12.5207H96.2249V15.2405Z" fill="#09183D"/>
</g>
</g>
<defs>
<clipPath id="clip0_240_578">
<rect width="110" height="29.1019" fill="white" transform="translate(0.0395508 0.766052)"/>
</clipPath>
</defs>
</svg>
