<svg width="54" height="52" viewBox="0 0 54 52" fill="none" xmlns="http://www.w3.org/2000/svg">
<g clip-path="url(#clip0_240_605)">
<path d="M28.3338 50.006C36.3142 50.006 40.8041 44.7389 40.8041 37.4862C40.8041 29.4358 34.7698 25.4466 28.6773 25.4466H19.5368V49.3774L23.8122 49.9575L28.3338 50.006ZM28.4201 23.6061C33.9979 23.6061 38.4018 19.1368 38.4018 12.1741C38.4018 6.08178 34.4268 2.6528 28.849 2.6528H24.3275L19.5368 3.23291V23.6061H28.4201ZM0.829102 51.7015V50.8298L6.23542 49.3774V8.23333L17.8739 3.23291H6.23542L0.829102 1.7801V0.932312H34.2549C45.2389 0.932312 50.7667 6.44452 50.7667 12.1017C50.7667 19.2818 43.5231 24.2138 31.0798 24.649C47.2985 24.9394 52.1753 30.7414 52.1753 37.196C52.1753 46.1888 44.8962 51.049 31.2514 51.7015H0.829102Z" fill="#333333" stroke="#333333" stroke-width="8"/>
</g>
<defs>
<clipPath id="clip0_240_605">
<rect width="52.5" height="50.7692" fill="white" transform="translate(0.829102 0.932312)"/>
</clipPath>
</defs>
</svg>
