<svg width="239" height="59" viewBox="0 0 239 59" fill="none" xmlns="http://www.w3.org/2000/svg">
<g clip-path="url(#clip0_6_15)">
<path d="M30.9002 26.0434V27.458C30.9002 27.8644 31.2292 28.1941 31.6347 28.1941C32.0403 28.1941 32.3692 27.8644 32.3692 27.458V26.0434C32.3692 21.217 29.6403 17.0184 25.6483 14.9135C29.4147 14.5506 32.3692 11.3617 32.3692 7.49276C32.3692 3.3819 29.032 0.0372314 24.9304 0.0372314H5.84436C5.43885 0.0372314 5.10986 0.366954 5.10986 0.773375C5.10986 1.1798 5.43885 1.50952 5.84436 1.50952H24.9304C28.2218 1.50952 30.9002 4.19316 30.9002 7.49276C30.9002 10.7916 28.2226 13.476 24.9304 13.476H19.8299H5.84436C5.43885 13.476 5.10986 13.8057 5.10986 14.2121V27.4572C5.10986 27.8636 5.43885 28.1933 5.84436 28.1933C6.24988 28.1933 6.57887 27.8636 6.57887 27.4572V14.9483H19.8299C25.9347 14.9483 30.9002 19.9258 30.9002 26.0434Z" fill="black"/>
<path d="M113.963 26.0434V27.458C113.963 27.8644 114.292 28.1941 114.697 28.1941C115.103 28.1941 115.432 27.8644 115.432 27.458V26.0434C115.432 21.217 112.703 17.0184 108.711 14.9135C112.477 14.5506 115.432 11.3617 115.432 7.49276C115.432 3.3819 112.095 0.0372314 107.993 0.0372314H88.9069C88.5013 0.0372314 88.1724 0.366954 88.1724 0.773375C88.1724 1.1798 88.5013 1.50952 88.9069 1.50952H107.993C111.284 1.50952 113.963 4.19316 113.963 7.49276C113.963 10.7916 111.285 13.476 107.993 13.476H102.892H88.9069C88.5013 13.476 88.1724 13.8057 88.1724 14.2121V27.4572C88.1724 27.8636 88.5013 28.1933 88.9069 28.1933C89.3124 28.1933 89.6414 27.8636 89.6414 27.4572V14.9483H102.892C108.996 14.9483 113.963 19.9258 113.963 26.0434Z" fill="black"/>
<path d="M198.548 7.49349C198.548 3.38263 195.211 0.0379639 191.109 0.0379639H172.023C171.618 0.0379639 171.289 0.367687 171.289 0.774107C171.289 1.18053 171.618 1.51025 172.023 1.51025H191.109C194.401 1.51025 197.079 4.19389 197.079 7.49349C197.079 10.7923 194.401 13.4767 191.109 13.4767H186.009H172.023C171.618 13.4767 171.289 13.8065 171.289 14.2129V27.4579C171.289 27.8644 171.618 28.1941 172.023 28.1941C172.429 28.1941 172.758 27.8644 172.758 27.4579V14.9482H186.009C192.113 14.9482 197.079 19.9257 197.079 26.0434V27.4579C197.079 27.8644 197.408 28.1941 197.813 28.1941C198.219 28.1941 198.548 27.8644 198.548 27.4579V26.0434C198.548 21.2169 195.819 17.0183 191.826 14.9134C195.593 14.5513 198.548 11.3616 198.548 7.49349Z" fill="black"/>
<path d="M73.5139 14.213C73.5139 6.88315 67.5638 0.919678 60.2503 0.919678C52.9369 0.919678 46.9867 6.88236 46.9867 14.213C46.9867 21.5428 52.9369 27.5063 60.2503 27.5063C67.5638 27.5063 73.5139 21.5428 73.5139 14.213ZM60.2503 26.034C53.7463 26.034 48.4549 20.7307 48.4549 14.2122C48.4549 7.69362 53.7463 2.39038 60.2503 2.39038C66.7543 2.39038 72.0457 7.69362 72.0457 14.2122C72.0457 20.7307 66.7543 26.034 60.2503 26.034Z" fill="black"/>
<path d="M225.658 0.918823C218.344 0.918823 212.394 6.8823 212.394 14.2121C212.394 21.5419 218.344 27.5054 225.658 27.5054C232.971 27.5054 238.921 21.5419 238.921 14.2121C238.921 6.8823 232.971 0.918823 225.658 0.918823ZM225.658 26.0339C219.154 26.0339 213.862 20.7307 213.862 14.2121C213.862 7.69356 219.154 2.39032 225.658 2.39032C232.162 2.39032 237.452 7.69356 237.452 14.2121C237.452 20.7307 232.161 26.0339 225.658 26.0339Z" fill="black"/>
<path d="M155.768 14.3386V27.4579C155.768 27.8644 156.097 28.1941 156.502 28.1941C156.908 28.1941 157.237 27.8644 157.237 27.4579V0.774107C157.237 0.367687 156.908 0.0379639 156.502 0.0379639C156.097 0.0379639 155.768 0.367687 155.768 0.774107V14.0864L145.284 12.2867C144.78 11.7625 144.073 11.4351 143.29 11.4351C142.507 11.4351 141.8 11.7625 141.296 12.2867L130.812 14.0864V0.774107C130.812 0.367687 130.483 0.0379639 130.078 0.0379639C129.672 0.0379639 129.343 0.367687 129.343 0.774107V27.4579C129.343 27.8644 129.672 28.1941 130.078 28.1941C130.483 28.1941 130.812 27.8644 130.812 27.4579V14.3386L141.296 16.1382C141.8 16.6625 142.507 16.9898 143.29 16.9898C144.073 16.9898 144.779 16.6625 145.284 16.1382L155.768 14.3386ZM143.291 16.1066C142.249 16.1066 141.4 15.2566 141.4 14.2121C141.4 13.1676 142.249 12.3176 143.291 12.3176C144.333 12.3176 145.181 13.1676 145.181 14.2121C145.181 15.2566 144.333 16.1066 143.291 16.1066Z" fill="black"/>
<path d="M119.406 47.8423C119.406 45.6338 117.613 43.8381 115.41 43.8381H105.159C104.941 43.8381 104.765 44.0153 104.765 44.2335C104.765 44.4517 104.941 44.6288 105.159 44.6288H115.41C117.178 44.6288 118.617 46.0703 118.617 47.8423C118.617 49.6142 117.178 51.0557 115.41 51.0557H112.671H105.159C104.941 51.0557 104.765 51.2328 104.765 51.451V58.5658C104.765 58.784 104.941 58.9611 105.159 58.9611C105.377 58.9611 105.553 58.784 105.553 58.5658V51.8464H112.671C115.95 51.8464 118.617 54.5197 118.617 57.8059V58.5658C118.617 58.784 118.794 58.9611 119.012 58.9611C119.23 58.9611 119.406 58.784 119.406 58.5658V57.8059C119.406 55.2124 117.939 52.9581 115.794 51.8274C117.818 51.6345 119.406 49.921 119.406 47.8423Z" fill="black"/>
<path d="M77.1336 43.8381H63.9977C63.78 43.8381 63.6033 44.0153 63.6033 44.2335C63.6033 44.4517 63.78 44.6288 63.9977 44.6288H70.1712V58.5665C70.1712 58.7848 70.3479 58.9619 70.5656 58.9619C70.7834 58.9619 70.9601 58.7848 70.9601 58.5665V44.6288H77.1336C77.3513 44.6288 77.528 44.4517 77.528 44.2335C77.528 44.0153 77.3513 43.8381 77.1336 43.8381Z" fill="black"/>
<path d="M97.7612 43.8381C97.5434 43.8381 97.3667 44.0153 97.3667 44.2335V51.9887C97.3667 55.3974 94.5999 58.1704 91.1988 58.1704C87.7977 58.1704 85.0309 55.3974 85.0309 51.9887V44.2335C85.0309 44.0153 84.8542 43.8381 84.6364 43.8381C84.4187 43.8381 84.2419 44.0153 84.2419 44.2335V51.9887C84.2419 55.8331 87.363 58.9611 91.1988 58.9611C95.0346 58.9611 98.1557 55.8331 98.1557 51.9887V44.2335C98.1557 44.0153 97.9789 43.8381 97.7612 43.8381Z" fill="black"/>
<path d="M49.7622 43.8381C45.9263 43.8381 42.8053 46.9662 42.8053 50.8105V58.5658C42.8053 58.784 42.982 58.9611 43.1998 58.9611C43.4175 58.9611 43.5942 58.784 43.5942 58.5658V50.8105C43.5942 47.4018 46.361 44.6288 49.7622 44.6288C53.1633 44.6288 55.9301 47.4018 55.9301 50.8105V58.5658C55.9301 58.784 56.1068 58.9611 56.3245 58.9611C56.5423 58.9611 56.719 58.784 56.719 58.5658V50.8105C56.719 46.9662 53.598 43.8381 49.7622 43.8381Z" fill="black"/>
<path d="M14.499 43.8381C14.2813 43.8381 14.1046 44.0153 14.1046 44.2335V51.9887C14.1046 55.3974 11.3378 58.1704 7.93665 58.1704H1.76794V44.2335C1.76794 44.0153 1.59122 43.8381 1.37347 43.8381C1.15573 43.8381 0.979004 44.0153 0.979004 44.2335V58.5665C0.979004 58.7848 1.15573 58.9619 1.37347 58.9619H7.93586C11.7717 58.9619 14.8927 55.8339 14.8927 51.9895V44.2343C14.8935 44.0153 14.7168 43.8381 14.499 43.8381Z" fill="black"/>
<path d="M29.3563 45.2179H35.6607C35.8784 45.2179 36.0551 45.0408 36.0551 44.8226C36.0551 44.6044 35.8784 44.4272 35.6607 44.4272H29.3563C25.5205 44.4272 22.3994 47.5553 22.3994 51.3997C22.3994 55.2441 25.5205 58.3721 29.3563 58.3721H35.6607C35.8784 58.3721 36.0551 58.1949 36.0551 57.9767C36.0551 57.7585 35.8784 57.5814 35.6607 57.5814H29.3563C25.9662 57.5814 23.2065 54.8258 23.1891 51.4321L27.9228 52.2449C28.1445 52.475 28.4537 52.6189 28.7969 52.6189C29.1401 52.6189 29.4502 52.475 29.6711 52.2449L34.5948 51.3997L29.6718 50.5544C29.4502 50.3243 29.1409 50.1804 28.7977 50.1804C28.4545 50.1804 28.1445 50.3243 27.9236 50.5544L23.1899 51.3672C23.2065 47.9735 25.9662 45.2179 29.3563 45.2179ZM28.7969 50.5686C29.2545 50.5686 29.6261 50.9418 29.6261 51.3997C29.6261 51.8575 29.2537 52.2307 28.7969 52.2307C28.3393 52.2307 27.9677 51.8575 27.9677 51.3997C27.9677 50.9418 28.3393 50.5686 28.7969 50.5686Z" fill="black"/>
<path d="M132.474 45.2179H138.778C138.996 45.2179 139.173 45.0408 139.173 44.8226C139.173 44.6044 138.996 44.4272 138.778 44.4272H132.474C128.638 44.4272 125.517 47.5553 125.517 51.3997C125.517 55.2441 128.638 58.3721 132.474 58.3721H138.778C138.996 58.3721 139.173 58.1949 139.173 57.9767C139.173 57.7585 138.996 57.5814 138.778 57.5814H132.474C129.084 57.5814 126.324 54.8258 126.307 51.4321L131.04 52.2449C131.262 52.475 131.571 52.6189 131.914 52.6189C132.258 52.6189 132.568 52.475 132.788 52.2449L137.712 51.3997L132.788 50.5544C132.567 50.3243 132.258 50.1804 131.914 50.1804C131.571 50.1804 131.261 50.3243 131.04 50.5544L126.307 51.3672C126.324 47.9735 129.084 45.2179 132.474 45.2179ZM131.914 50.5686C132.372 50.5686 132.744 50.9418 132.744 51.3997C132.744 51.8575 132.371 52.2307 131.914 52.2307C131.457 52.2307 131.085 51.8575 131.085 51.3997C131.085 50.9418 131.457 50.5686 131.914 50.5686Z" fill="black"/>
<path d="M152.522 45.2179H159.261C159.479 45.2179 159.656 45.0408 159.656 44.8226C159.656 44.6044 159.479 44.4272 159.261 44.4272H152.522C149.157 44.4272 146.419 47.171 146.419 50.5441C146.419 50.7624 146.596 50.9395 146.813 50.9395H158.867C158.844 54.606 155.861 57.5822 152.197 57.5822H146.813C146.596 57.5822 146.419 57.7593 146.419 57.9775C146.419 58.1957 146.596 58.3729 146.813 58.3729H152.197C156.31 58.3729 159.656 55.0195 159.656 50.8976V50.5441C159.656 50.3259 159.479 50.1488 159.261 50.1488H147.223C147.425 47.3955 149.725 45.2179 152.522 45.2179Z" fill="black"/>
</g>
<defs>
<clipPath id="clip0_6_15">
<rect width="239" height="59" fill="white"/>
</clipPath>
</defs>
</svg>
