<svg width="108" height="143" viewBox="0 0 108 143" fill="none" xmlns="http://www.w3.org/2000/svg">
<path d="M87.1215 63.3905C95.8971 65.9508 103.485 72.2588 107.604 80.4222C99.5335 83.706 90.3312 84.1142 82.0009 81.5539C73.6706 78.9936 65.5258 73.9843 60.702 66.7486C68.55 62.0733 78.3645 60.8302 87.1215 63.3905Z" fill="white"/>
<path d="M87.1213 63.3907C87.1213 63.3907 86.9729 63.298 86.6575 63.2052C86.3421 63.1124 85.8782 62.9455 85.2474 62.7785C84.0044 62.4631 82.1305 62.0735 79.7186 61.9065C74.9691 61.554 67.7334 62.1848 60.4792 66.3963C60.2751 66.5076 60.2194 66.7674 60.3308 66.9714C64.6165 73.5392 72.4273 79.1236 81.6853 81.9808C91.036 84.8936 100.609 83.799 107.734 80.812C107.956 80.7192 108.049 80.478 107.975 80.2739V80.2368C104.097 72.7971 98.3458 68.3815 94.1529 66.118C92.0378 64.9677 90.2567 64.2998 89.0322 63.8916C88.42 63.6876 87.9376 63.5762 87.6222 63.4835C87.3068 63.4093 87.1213 63.3722 87.1213 63.3907C87.0656 63.5392 89.7929 64.17 93.9302 66.5447C97.9933 68.901 103.559 73.3351 107.233 80.6079L107.455 80.0328C100.461 82.8714 91.1102 83.8918 82.0007 81.0532C72.9282 78.2517 65.2844 72.8156 61.0543 66.5262L60.9245 67.1199C67.9375 62.9454 75.0062 62.2033 79.7001 62.4074C84.4682 62.6301 87.1027 63.5577 87.1398 63.4093L87.1213 63.3907Z" fill="#171714"/>
<path d="M72.2236 25.32C79.9417 17.7503 90.888 13.5945 101.686 14.0769C100.387 24.2996 95.4705 34.0399 87.9937 41.1457C80.5168 48.2515 70.6281 53.7432 60.3497 54.5224C60.09 43.706 64.5056 32.871 72.2236 25.32Z" fill="white"/>
<path d="M72.2231 25.32C72.2231 25.32 72.0562 25.4313 71.7593 25.7096C71.481 25.9879 71.0358 26.3775 70.5163 26.9341C69.4588 28.0473 67.9931 29.7356 66.4346 32.129C63.3363 36.8414 59.7926 44.6523 59.9411 54.541C59.9411 54.7636 60.1266 54.9492 60.3678 54.9492H60.4049C69.6072 54.3184 79.9041 49.5131 88.2158 41.6281C96.6389 33.706 101.054 23.1864 102.131 14.1326C102.168 13.9099 102.001 13.6873 101.778 13.6688H101.741C91.8522 13.3163 83.9672 16.6743 79.1805 19.6799C76.7501 21.2013 75.0246 22.6299 73.8929 23.6503C73.3178 24.1512 72.9282 24.5965 72.6499 24.8748C72.3716 25.153 72.2417 25.32 72.2603 25.32C72.2974 25.3571 72.9096 24.8191 74.0599 23.8358C75.2287 22.8896 77.0098 21.5167 79.4217 20.0881C84.2084 17.2495 92.0192 14.0584 101.685 14.5036L101.296 14.0398C100.164 22.9081 95.7854 33.1865 87.5479 40.9416C79.366 48.6968 69.3103 53.4278 60.3492 54.1328L60.7945 54.541C60.5719 44.8749 63.9114 37.1383 66.8613 32.4073C68.3456 30.0139 69.7556 28.27 70.7204 27.1197C71.7222 25.9879 72.2788 25.3757 72.2417 25.3386L72.2231 25.32Z" fill="#171714"/>
<path d="M25.3031 32.3329C20.1268 22.8524 19.0693 11.1825 22.4645 0.922729C31.9636 4.94873 39.997 12.3143 44.8022 21.4423C49.626 30.5518 51.3329 41.5723 49.3106 51.6837C38.8467 48.9935 30.4793 41.8135 25.3031 32.3329Z" fill="white"/>
<path d="M25.3032 32.333C25.3032 32.333 25.3589 32.5185 25.5444 32.871C25.73 33.2049 25.9711 33.7245 26.3422 34.3738C27.1029 35.654 28.2717 37.5278 30.0528 39.68C31.8339 41.8136 34.2087 44.2997 37.3998 46.5446C40.5538 48.8266 44.5612 50.8488 49.218 52.0919C49.4407 52.1476 49.6633 52.0177 49.719 51.7951V51.758C51.5928 42.7598 50.6281 31.3125 45.1364 21.0156C39.7746 10.9599 30.9619 3.984 22.6316 0.533148C22.4275 0.440383 22.1678 0.533138 22.075 0.755774V0.792888C19.0323 10.2178 20.127 18.7151 21.7225 24.1326C22.5203 26.8784 23.4294 28.9378 24.1158 30.2921C24.4498 30.9786 24.7652 31.4795 24.9507 31.8135C25.1548 32.1474 25.2661 32.333 25.2847 32.3144C25.3218 32.2959 24.9693 31.5537 24.357 30.1808C23.7633 28.7893 22.9285 26.7114 22.2049 23.9841C20.7763 18.6038 19.8301 10.2364 22.8542 1.05263L22.2977 1.31237C30.4424 4.76323 39.0139 11.6464 44.2644 21.4795C49.6448 31.5537 50.6281 42.7783 48.8841 51.591L49.4036 51.2756C44.8581 50.1067 40.9063 48.1772 37.7708 45.988C34.5983 43.8358 32.2235 41.4239 30.4053 39.3645C28.5871 37.2866 27.3626 35.4684 26.5463 34.2439C25.7485 33.0009 25.3218 32.3144 25.2847 32.333H25.3032Z" fill="#171714"/>
<path d="M14.0596 62.129C6.58272 56.5816 1.55487 47.8432 0.534451 38.5852C9.40278 38.3069 18.3453 41.1827 25.3955 46.5816C32.4456 51.9805 38.7536 58.6039 40.813 67.2311C31.6478 68.9008 21.5364 67.6763 14.0596 62.129Z" fill="white"/>
<path d="M14.0598 62.129C14.0598 62.129 14.1711 62.2589 14.4494 62.4815C14.7277 62.6856 15.1173 63.0195 15.6554 63.372C16.75 64.1142 18.4383 65.0975 20.7389 66.0066C25.3029 67.8619 32.52 69.1235 40.8874 67.6392C41.1101 67.6021 41.277 67.3795 41.2214 67.1569C40.3308 63.2978 38.4199 59.3832 35.674 55.8395C32.9282 52.2774 29.4402 49.0491 25.5812 46.1178C17.7333 40.1437 8.28983 37.8431 0.497581 38.1585C0.274944 38.1585 0.0894127 38.3626 0.0894127 38.5853V38.6224C1.12838 47.1011 5.06161 53.3534 8.27128 57.0084C9.88539 58.8637 11.3511 60.1438 12.39 60.9602C12.9095 61.3683 13.3177 61.6466 13.596 61.8507C13.8743 62.0362 14.0227 62.129 14.0413 62.1105C14.134 61.9991 11.7592 60.4221 8.66089 56.693C5.59965 53.0009 1.8705 46.7857 0.942848 38.5296L0.534687 38.9934C8.14141 38.7708 17.3437 41.0528 25.0061 46.8784C28.8094 49.7727 32.2603 52.9453 34.9505 56.3961C37.6407 59.847 39.5145 63.6133 40.4051 67.3053L40.739 66.7858C32.5571 68.3257 25.4513 67.194 20.9244 65.5057C16.3418 63.8359 14.1526 61.9435 14.0598 62.0919V62.129Z" fill="#171714"/>
<path d="M6.39741 114.634C6.89834 104.263 20.0153 92.4076 20.0153 92.4076C20.0153 92.4076 18.9021 79.6246 19.1804 81.5726H74.6353C74.9136 79.6246 73.8004 92.4076 73.8004 92.4076C73.8004 92.4076 86.5834 102.686 87.4183 114.634C88.1419 124.987 79.088 142.426 79.088 142.426H14.7462C14.7462 142.426 5.72949 128.53 6.41595 114.634H6.39741Z" fill="#171714"/>
<path d="M33.4475 18.5853C33.4475 18.5853 33.9114 19.4202 34.8761 20.8303C35.3771 21.5167 35.9708 22.3702 36.6016 23.4091C37.2509 24.4295 38.0301 25.5613 38.7537 26.8971C40.3307 29.4945 41.9819 32.7227 43.6331 36.3776C45.2287 40.0697 46.7686 44.207 48.0302 48.6597C49.2547 53.131 50.071 57.4724 50.5905 61.4613C51.0729 65.4502 51.2955 69.068 51.2955 72.1107C51.3512 73.6321 51.2584 75.005 51.2399 76.2109C51.2399 77.4169 51.1657 78.4558 51.0914 79.3093C50.9801 81.0162 50.943 81.9623 51.0172 81.9623C51.0914 81.9623 51.2399 81.0347 51.4625 79.3464C51.5924 78.4929 51.7037 77.454 51.7779 76.248C51.8521 75.0421 51.982 73.6506 51.982 72.1107C52.0748 69.0495 51.9078 65.3945 51.4811 61.35C50.9987 57.324 50.2009 52.9269 48.9578 48.4C47.6777 43.8916 46.1007 39.7172 44.4309 36.0066C42.724 32.3331 40.9801 29.1049 39.3103 26.526C38.5311 25.2087 37.6962 24.0956 37.0097 23.0937C36.3233 22.0919 35.6925 21.257 35.1359 20.5891C34.0598 19.2532 33.4476 18.5297 33.3919 18.5668L33.4475 18.5853Z" fill="#171714"/>
<path d="M15.7851 52.9453C15.7109 53.0566 17.6589 54.2811 20.8686 56.192C24.0783 58.103 28.531 60.6448 33.4846 63.4277C38.4383 66.2106 42.9652 68.6782 46.2491 70.4222C49.533 72.1662 51.6109 73.1866 51.6666 73.0567C51.7222 72.9454 49.7742 71.7023 46.583 69.8099C43.3734 67.9175 38.9207 65.3572 33.967 62.5743C29.0134 59.7913 24.505 57.3423 21.2211 55.5983C17.9372 53.8544 15.8593 52.834 15.8036 52.9453H15.7851Z" fill="#171714"/>
<path d="M51.6851 69.2722C51.8336 69.3464 53.0581 66.9716 55.2844 63.3167C57.5108 59.6432 60.8689 54.7452 65.0619 49.7173C69.2734 44.708 73.5406 40.5707 76.7688 37.7321C79.997 34.8935 82.112 33.2794 82.0193 33.1495C81.9822 33.0939 81.407 33.4464 80.4052 34.1328C79.4033 34.8007 77.9933 35.8583 76.3235 37.2126C72.9654 39.9399 68.5684 44.0401 64.3197 49.1051C60.0711 54.17 56.7872 59.1979 54.6907 62.9827C53.6332 64.8751 52.8354 66.4336 52.3531 67.5467C51.8521 68.6414 51.6109 69.2722 51.6666 69.3093L51.6851 69.2722Z" fill="#171714"/>
<path d="M53.4847 66.081C53.4847 66.2294 55.507 66.4335 58.7723 67.1199C62.0377 67.7693 66.5275 68.7526 71.4811 69.9214C76.4348 71.0902 80.8875 72.222 84.0972 73.094C87.3254 73.9289 89.2363 74.6524 89.292 74.5226C89.3477 74.4113 87.4738 73.4465 84.2827 72.4446C81.1101 71.4057 76.6574 70.1626 71.6852 68.9938C66.7316 67.8249 62.1861 66.9529 58.8837 66.4706C55.5812 65.9511 53.4847 65.9696 53.4847 66.0995V66.081Z" fill="#171714"/>
<path d="M20.776 92.7415C20.776 93.0013 32.483 93.2239 46.8986 93.2239C61.3143 93.2239 73.0212 93.0013 73.0212 92.7415C73.0212 92.4818 61.3329 92.2592 46.8986 92.2592C32.4644 92.2592 20.776 92.4818 20.776 92.7415Z" fill="white"/>
</svg>
