<svg width="334" height="82" viewBox="0 0 334 82" fill="none" xmlns="http://www.w3.org/2000/svg">
<path d="M43.1829 36.196V38.162C43.1829 38.7268 43.6427 39.1851 44.2094 39.1851C44.7761 39.1851 45.2358 38.7268 45.2358 38.162V36.196C45.2358 29.488 41.4222 23.6526 35.8433 20.7273C41.1068 20.2228 45.2358 15.7908 45.2358 10.4137C45.2358 4.70028 40.5721 0.0517578 34.84 0.0517578H8.16757C7.60087 0.0517578 7.14111 0.510016 7.14111 1.07487C7.14111 1.63973 7.60087 2.09799 8.16757 2.09799H34.84C39.4398 2.09799 43.1829 5.8278 43.1829 10.4137C43.1829 14.9985 39.4409 18.7294 34.84 18.7294H27.7122H8.16757C7.60087 18.7294 7.14111 19.1876 7.14111 19.7525V38.1609C7.14111 38.7257 7.60087 39.184 8.16757 39.184C8.73427 39.184 9.19403 38.7257 9.19403 38.1609V20.7756H27.7122C36.2436 20.7756 43.1829 27.6934 43.1829 36.196Z" fill="white"/>
<path d="M159.262 36.196V38.162C159.262 38.7268 159.722 39.1851 160.288 39.1851C160.855 39.1851 161.315 38.7268 161.315 38.162V36.196C161.315 29.488 157.501 23.6526 151.922 20.7273C157.186 20.2228 161.315 15.7908 161.315 10.4137C161.315 4.70028 156.651 0.0517578 150.919 0.0517578H124.247C123.68 0.0517578 123.22 0.510016 123.22 1.07487C123.22 1.63973 123.68 2.09799 124.247 2.09799H150.919C155.519 2.09799 159.262 5.8278 159.262 10.4137C159.262 14.9985 155.52 18.7294 150.919 18.7294H143.791H124.247C123.68 18.7294 123.22 19.1876 123.22 19.7525V38.1609C123.22 38.7257 123.68 39.184 124.247 39.184C124.813 39.184 125.273 38.7257 125.273 38.1609V20.7756H143.791C152.322 20.7756 159.262 27.6934 159.262 36.196Z" fill="white"/>
<path d="M277.469 10.4147C277.469 4.70126 272.805 0.0527344 267.073 0.0527344H240.4C239.834 0.0527344 239.374 0.510993 239.374 1.07585C239.374 1.64071 239.834 2.09896 240.4 2.09896H267.073C271.673 2.09896 275.416 5.82877 275.416 10.4147C275.416 14.9994 271.673 18.7304 267.073 18.7304H259.945H240.4C239.834 18.7304 239.374 19.1886 239.374 19.7535V38.1618C239.374 38.7267 239.834 39.185 240.4 39.185C240.967 39.185 241.427 38.7267 241.427 38.1618V20.7755H259.945C268.475 20.7755 275.416 27.6933 275.416 36.1958V38.1618C275.416 38.7267 275.876 39.185 276.442 39.185C277.009 39.185 277.469 38.7267 277.469 38.1618V36.1958C277.469 29.4879 273.655 23.6525 268.075 20.7271C273.339 20.2238 277.469 15.7907 277.469 10.4147Z" fill="white"/>
<path d="M102.735 19.7537C102.735 9.56654 94.4198 1.27832 84.1994 1.27832C73.9789 1.27832 65.6636 9.56544 65.6636 19.7537C65.6636 29.9409 73.9789 38.2291 84.1994 38.2291C94.4198 38.2291 102.735 29.9409 102.735 19.7537ZM84.1994 36.1829C75.1101 36.1829 67.7154 28.8123 67.7154 19.7526C67.7154 10.693 75.1101 3.32235 84.1994 3.32235C93.2886 3.32235 100.683 10.693 100.683 19.7526C100.683 28.8123 93.2886 36.1829 84.1994 36.1829Z" fill="white"/>
<path d="M315.354 1.27686C305.134 1.27686 296.818 9.56508 296.818 19.7523C296.818 29.9395 305.134 38.2277 315.354 38.2277C325.575 38.2277 333.89 29.9395 333.89 19.7523C333.89 9.56508 325.575 1.27686 315.354 1.27686ZM315.354 36.1825C306.265 36.1825 298.87 28.8119 298.87 19.7523C298.87 10.6926 306.265 3.32199 315.354 3.32199C324.443 3.32199 331.837 10.6926 331.837 19.7523C331.837 28.8119 324.442 36.1825 315.354 36.1825Z" fill="white"/>
<path d="M217.684 19.9282V38.1618C217.684 38.7267 218.144 39.185 218.711 39.185C219.277 39.185 219.737 38.7267 219.737 38.1618V1.07585C219.737 0.510993 219.277 0.0527344 218.711 0.0527344C218.144 0.0527344 217.684 0.510993 217.684 1.07585V19.5776L203.034 17.0764C202.329 16.3478 201.34 15.8929 200.246 15.8929C199.153 15.8929 198.164 16.3478 197.459 17.0764L182.809 19.5776V1.07585C182.809 0.510993 182.349 0.0527344 181.782 0.0527344C181.216 0.0527344 180.756 0.510993 180.756 1.07585V38.1618C180.756 38.7267 181.216 39.185 181.782 39.185C182.349 39.185 182.809 38.7267 182.809 38.1618V19.9282L197.459 22.4294C198.164 23.158 199.153 23.613 200.246 23.613C201.34 23.613 202.328 23.158 203.034 22.4294L217.684 19.9282ZM200.248 22.3854C198.791 22.3854 197.606 21.2041 197.606 19.7524C197.606 18.3007 198.791 17.1193 200.248 17.1193C201.704 17.1193 202.889 18.3007 202.889 19.7524C202.889 21.2041 201.704 22.3854 200.248 22.3854Z" fill="white"/>
<path d="M166.868 66.4928C166.868 63.4234 164.363 60.9277 161.285 60.9277H146.958C146.654 60.9277 146.407 61.1739 146.407 61.4772C146.407 61.7805 146.654 62.0267 146.958 62.0267H161.285C163.756 62.0267 165.766 64.03 165.766 66.4928C165.766 68.9555 163.756 70.9589 161.285 70.9589H157.457H146.958C146.654 70.9589 146.407 71.205 146.407 71.5083V81.3966C146.407 81.6999 146.654 81.9461 146.958 81.9461C147.263 81.9461 147.51 81.6999 147.51 81.3966V72.0578H157.457C162.039 72.0578 165.767 75.7733 165.767 80.3405V81.3966C165.767 81.6999 166.014 81.9461 166.318 81.9461C166.622 81.9461 166.869 81.6999 166.869 81.3966V80.3405C166.869 76.736 164.818 73.6029 161.821 72.0314C164.649 71.7633 166.868 69.3819 166.868 66.4928Z" fill="white"/>
<path d="M107.793 60.9277H89.436C89.1317 60.9277 88.8848 61.1739 88.8848 61.4772C88.8848 61.7805 89.1317 62.0267 89.436 62.0267H98.0634V81.3977C98.0634 81.701 98.3103 81.9472 98.6146 81.9472C98.9189 81.9472 99.1659 81.701 99.1659 81.3977V62.0267H107.793C108.098 62.0267 108.344 61.7805 108.344 61.4772C108.344 61.1739 108.098 60.9277 107.793 60.9277Z" fill="white"/>
<path d="M136.62 60.9277C136.316 60.9277 136.069 61.1739 136.069 61.4772V72.2556C136.069 76.9932 132.202 80.8472 127.449 80.8472C122.696 80.8472 118.83 76.9932 118.83 72.2556V61.4772C118.83 61.1739 118.583 60.9277 118.278 60.9277C117.974 60.9277 117.727 61.1739 117.727 61.4772V72.2556C117.727 77.5987 122.089 81.9461 127.449 81.9461C132.81 81.9461 137.171 77.5987 137.171 72.2556V61.4772C137.171 61.1739 136.924 60.9277 136.62 60.9277Z" fill="white"/>
<path d="M69.542 60.9277C64.1814 60.9277 59.8198 65.2751 59.8198 70.6182V81.3966C59.8198 81.6999 60.0668 81.9461 60.3711 81.9461C60.6754 81.9461 60.9224 81.6999 60.9224 81.3966V70.6182C60.9224 65.8807 64.7889 62.0267 69.542 62.0267C74.295 62.0267 78.1616 65.8807 78.1616 70.6182V81.3966C78.1616 81.6999 78.4085 81.9461 78.7128 81.9461C79.0171 81.9461 79.2641 81.6999 79.2641 81.3966V70.6182C79.2641 65.2751 74.9025 60.9277 69.542 60.9277Z" fill="white"/>
<path d="M20.2623 60.9277C19.958 60.9277 19.711 61.1739 19.711 61.4772V72.2556C19.711 76.9932 15.8444 80.8472 11.0914 80.8472H2.4707V61.4772C2.4707 61.1739 2.22373 60.9277 1.91943 60.9277C1.61513 60.9277 1.36816 61.1739 1.36816 61.4772V81.3977C1.36816 81.701 1.61513 81.9472 1.91943 81.9472H11.0903C16.4508 81.9472 20.8124 77.5998 20.8124 72.2567V61.4783C20.8135 61.1739 20.5666 60.9277 20.2623 60.9277Z" fill="white"/>
<path d="M41.0254 62.8455H49.8357C50.14 62.8455 50.387 62.5994 50.387 62.2961C50.387 61.9927 50.14 61.7466 49.8357 61.7466H41.0254C35.6648 61.7466 31.3032 66.094 31.3032 71.4371C31.3032 76.7801 35.6648 81.1275 41.0254 81.1275H49.8357C50.14 81.1275 50.387 80.8814 50.387 80.578C50.387 80.2747 50.14 80.0286 49.8357 80.0286H41.0254C36.2878 80.0286 32.4311 76.1988 32.4069 71.4821L39.0221 72.6118C39.3319 72.9316 39.7641 73.1316 40.2437 73.1316C40.7233 73.1316 41.1566 72.9316 41.4653 72.6118L48.3462 71.4371L41.4664 70.2623C41.1566 69.9425 40.7244 69.7425 40.2448 69.7425C39.7652 69.7425 39.3319 69.9425 39.0232 70.2623L32.408 71.392C32.4311 66.6753 36.2878 62.8455 41.0254 62.8455ZM40.2437 70.2821C40.8831 70.2821 41.4024 70.8008 41.4024 71.4371C41.4024 72.0733 40.882 72.592 40.2437 72.592C39.6042 72.592 39.0849 72.0733 39.0849 71.4371C39.0849 70.8008 39.6042 70.2821 40.2437 70.2821Z" fill="white"/>
<path d="M185.13 62.8455H193.941C194.245 62.8455 194.492 62.5994 194.492 62.2961C194.492 61.9927 194.245 61.7466 193.941 61.7466H185.13C179.77 61.7466 175.408 66.094 175.408 71.4371C175.408 76.7801 179.77 81.1275 185.13 81.1275H193.941C194.245 81.1275 194.492 80.8814 194.492 80.578C194.492 80.2747 194.245 80.0286 193.941 80.0286H185.13C180.393 80.0286 176.536 76.1988 176.512 71.4821L183.127 72.6118C183.437 72.9316 183.869 73.1316 184.349 73.1316C184.828 73.1316 185.262 72.9316 185.57 72.6118L192.451 71.4371L185.57 70.2623C185.26 69.9425 184.828 69.7425 184.349 69.7425C183.869 69.7425 183.436 69.9425 183.127 70.2623L176.512 71.392C176.536 66.6753 180.393 62.8455 185.13 62.8455ZM184.349 70.2821C184.988 70.2821 185.507 70.8008 185.507 71.4371C185.507 72.0733 184.987 72.592 184.349 72.592C183.709 72.592 183.19 72.0733 183.19 71.4371C183.19 70.8008 183.709 70.2821 184.349 70.2821Z" fill="white"/>
<path d="M213.148 62.8455H222.566C222.87 62.8455 223.117 62.5994 223.117 62.2961C223.117 61.9927 222.87 61.7466 222.566 61.7466H213.148C208.445 61.7466 204.619 65.5599 204.619 70.248C204.619 70.5513 204.866 70.7975 205.17 70.7975H222.015C221.983 75.8933 217.814 80.0297 212.694 80.0297H205.17C204.866 80.0297 204.619 80.2758 204.619 80.5791C204.619 80.8825 204.866 81.1286 205.17 81.1286H212.694C218.442 81.1286 223.117 76.468 223.117 70.7392V70.248C223.117 69.9447 222.87 69.6985 222.566 69.6985H205.743C206.025 65.872 209.239 62.8455 213.148 62.8455Z" fill="white"/>
</svg>
