<svg width="101" height="37" viewBox="0 0 101 37" fill="none" xmlns="http://www.w3.org/2000/svg">
<g clip-path="url(#clip0_241_2048)">
<path d="M17.4186 12.9375C18.7828 12.9292 20.1465 12.9969 21.5032 13.1403L22.0677 11.5646H14.6293L15.1229 12.9375H17.4186ZM18.3282 1.20413C14.862 1.20384 11.4735 2.23134 8.59126 4.15672C5.70899 6.0821 3.46235 8.81889 2.13542 12.021C0.808483 15.2232 0.46084 18.7469 1.13645 22.1466C1.81205 25.5464 3.48057 28.6694 5.93102 31.1209C8.38203 33.572 11.5048 35.2412 14.9045 35.9176C18.3042 36.5939 21.8281 36.2469 25.0306 34.9206C28.2331 33.5942 30.9703 31.348 32.8963 28.466C34.8222 25.584 35.8503 22.1956 35.8506 18.7293C35.8451 14.0835 33.9973 9.62945 30.7125 6.34404C27.4277 3.05864 22.974 1.21006 18.3282 1.20374V1.20413ZM18.3282 34.8828C15.9397 34.8829 13.5809 34.3533 11.4218 33.3322C9.26259 32.3111 7.35676 30.8238 5.84154 28.9775C4.32633 27.1311 3.23945 24.9718 2.6592 22.6548C2.07894 20.3379 2.01976 17.9212 2.4859 15.5786C3.10918 12.4453 4.64765 9.5672 6.90674 7.30829C9.16577 5.04926 12.0435 3.51057 15.1771 2.88705C18.3106 2.26353 21.5581 2.58385 24.51 3.8062C27.4619 5.02854 29.9843 7.09912 31.7592 9.75537C33.5342 12.4116 34.4816 15.5346 34.4816 18.7293C34.4744 23.0107 32.77 27.114 29.7424 30.1408C26.7149 33.1676 22.6096 34.8704 18.3282 34.8756V34.8828ZM28.4285 17.5261L27.8842 18.0062H29.8082L29.2707 17.5261V13.3128L27.7966 14.1411L28.4289 14.3543L28.4285 17.5261ZM28.858 19.3959C28.6374 19.3892 28.4178 19.428 28.2129 19.5097C28.0079 19.5915 27.822 19.7146 27.6666 19.8712C27.5112 20.0279 27.3897 20.2148 27.3095 20.4204C27.2294 20.6261 27.1925 20.8459 27.2009 21.0664C27.2009 21.9015 27.7384 22.4832 28.4962 22.4832C28.6603 22.49 28.8237 22.4637 28.9771 22.4055C29.1304 22.3473 29.2704 22.2587 29.3886 22.145C29.1416 22.943 28.4958 23.6633 27.1942 24.2649C28.6683 24.194 30.4134 23.2777 30.4134 21.1437C30.4134 19.9772 29.7305 19.3959 28.858 19.3959ZM29.4157 21.878C29.2603 21.9841 29.0764 22.0406 28.8882 22.0402C28.4081 22.0402 28.1173 21.6242 28.1173 20.7891C28.1173 20.1365 28.3508 19.6293 28.8205 19.6293C29.3647 19.6293 29.4966 20.3529 29.4966 20.982C29.515 21.283 29.488 21.5852 29.4157 21.878ZM18.3282 29.0766C16.4743 29.0619 14.6623 28.524 13.1005 27.5244C10.869 26.0973 8.76576 23.443 8.7048 19.9839H14.8588C16.2231 19.9755 17.5868 20.0444 18.9433 20.1903L19.5079 18.6146H15.2608L12.5252 10.9897C12.1528 9.99065 11.8888 8.95453 11.7376 7.89914H9.70881C10.2237 8.86485 10.6689 9.8661 11.0411 10.8952L11.2814 11.5714H9.7869L8.15379 15.7643C5.94576 21.4214 8.67811 26.3311 12.3635 28.6878C14.1316 29.8161 16.1831 30.4209 18.2808 30.4324C20.9622 30.4259 23.5349 29.3714 25.4495 27.4941V25.1745C24.6925 26.3769 23.6413 27.3664 22.3952 28.0491C21.149 28.7317 19.749 29.0853 18.3282 29.0766ZM9.42514 16.2544L10.7204 12.9371H11.7686L13.7974 18.6146H8.79285C8.91031 17.8058 9.12253 17.0136 9.42514 16.2544ZM24.922 7.89914C24.7708 8.9476 24.5078 9.97687 24.1375 10.9693L18.8286 25.7459H17.8142L16.3568 21.6884H14.9026L15.7512 24.0554C16.1215 25.0479 16.3845 26.0771 16.5357 27.1256H20.1234C20.2729 26.087 20.5313 25.067 20.8944 24.0825L25.6284 10.8952C26.0002 9.8709 26.4442 8.87421 26.9571 7.91269L24.922 7.89914Z" fill="#333333"/>
</g>
<path d="M77.0032 12.614C78.0642 11.8965 78.6327 11.2733 78.6327 10.3335C78.6327 9.39359 77.9072 8.74138 76.8685 8.74138H73.3075L73.4151 11.5713V13.8017L73.3075 16.6312H74.6486L74.5569 14.7543C74.5511 14.562 74.5973 14.3716 74.6904 14.2033C74.7832 14.0344 74.9203 13.8929 75.0872 13.7925L76.0458 13.2196L77.5849 16.6336H79.0144C78.5917 15.9735 78.2156 15.2858 77.8885 14.5754L77.0032 12.6132V12.614ZM74.7685 12.6909L74.5422 12.826V9.8438H76.9271C77.2813 9.8438 77.5092 10.0255 77.5092 10.3307C77.5076 11.0315 76.7167 11.5303 74.7685 12.6909ZM84.2385 23.7796C85.2995 23.0617 85.868 22.439 85.868 21.4991C85.868 20.5592 85.1425 19.907 84.1038 19.907H80.5423L80.6503 22.737V24.9673L80.5423 27.7969H81.8838L81.7918 25.9207C81.7862 25.7287 81.8324 25.5387 81.9257 25.3701C82.0189 25.2016 82.1555 25.0598 82.3225 24.9598L83.2807 24.3864L84.8202 27.8013H86.2497C85.8276 27.1418 85.4514 26.4541 85.1238 25.7431L84.2385 23.7796ZM82.0065 23.8557L81.7798 23.9916V21.0114H84.1588C84.5134 21.0114 84.7409 21.1939 84.7409 21.4983C84.7425 22.1967 83.952 22.6932 82.0065 23.8557ZM53.136 8.73899L53.0276 11.5757V16.632H51.9025C51.9017 15.8185 51.6535 15.0236 51.1901 14.3491L48.4331 10.3386V13.8244L48.5411 16.636H47.1992L47.3076 13.7435V11.6343L47.1992 8.74178H48.6929L51.9025 13.4108V11.6052L51.7945 8.73899H53.136ZM61.6032 19.903L61.4948 22.7398V27.8021H60.3717C60.3713 26.985 60.1229 26.1872 59.6593 25.5144L56.903 21.5039V24.9948L57.0106 27.8021H55.6672L55.7755 24.904V22.8043L55.6672 19.9062H57.1608L60.3721 24.5725V22.774L60.2645 19.9034H61.6036L61.6032 19.903ZM87.0178 13.8224L87.1254 16.634H85.7843L85.8923 13.7415V11.6339L85.7843 8.74138H87.2776L90.4872 13.4104V11.6048L90.3789 8.73859H91.7199L91.612 11.5753V16.6316H90.4872C90.486 15.8181 90.2378 15.0232 89.7741 14.3487L87.0178 10.3382V13.8224ZM100.079 25.6498C100.079 27.0837 99.1405 28.01 97.689 28.01C96.4464 28.01 95.4324 27.1096 95.1523 25.8606L96.2284 25.0817C96.2041 26.1387 96.8392 26.902 97.6882 26.902C98.7887 26.902 98.9532 26.1156 98.9532 25.647C98.9532 24.9207 98.3648 24.5267 97.395 23.9657C96.4826 23.4374 95.4479 22.8378 95.4479 21.6146C95.4479 20.3915 96.2974 19.5783 97.5619 19.5783C98.5644 19.5783 99.2118 20.1345 99.7034 20.7565L98.9464 21.7306C98.4592 20.913 98.0078 20.6859 97.5627 20.6859C97.1934 20.6859 96.5739 20.8071 96.5739 21.617C96.5739 22.1804 97.1034 22.5159 97.9675 23.0167C98.9082 23.5613 100.079 24.2394 100.079 25.6498ZM81.832 13.969V11.3865L81.7233 8.72266H83.0643L82.9564 11.6976V13.6579L83.0643 16.6332H81.7233L81.832 13.969ZM70.3206 8.72146L70.2122 11.5423V15.7197L70.0158 15.8866C69.9699 15.9256 68.8735 16.832 67.4105 16.832C65.9475 16.832 64.8483 15.9248 64.8025 15.8866L64.6053 15.7197V11.5419L64.4977 8.72106H65.8388L65.732 11.4088V15.185C66.0376 15.3842 66.6706 15.7256 67.4109 15.7256C68.1512 15.7256 68.7835 15.3846 69.091 15.185V11.6917V11.6956L68.9827 8.72106H70.3237L70.3206 8.72146ZM77.6721 19.9019L77.5642 22.7226V26.9001L77.3674 27.067C77.3215 27.106 76.2251 28.0124 74.7593 28.0124C73.2935 28.0124 72.1971 27.1052 72.1509 27.067L71.9545 26.9001V22.7207L71.8469 19.8999H73.188L73.0804 22.5876V26.3638C73.3868 26.563 74.0199 26.9044 74.7601 26.9044C75.5004 26.9044 76.1323 26.5634 76.4394 26.3638V22.8705V22.8744L76.3307 19.8999L77.6721 19.9019ZM40.0297 13.6104V11.7144L39.9209 8.73899H44.1346L44.5362 9.93106L41.8126 9.8442H41.1552V11.6343H43.7174L43.4047 12.7395H41.1552V15.4806H41.8126L44.5362 15.3938L44.1346 16.5858H39.9209L40.0297 13.6104ZM49.6861 21.0306V22.8207H52.2483L51.9336 23.9259H49.6861V26.667H50.3435L53.0671 26.5801L52.6655 27.7722H48.4518L48.5606 24.7968V22.9007L48.4518 19.9254H52.6655L53.0659 21.1174L50.3423 21.0306H49.6861ZM89.7597 21.0306V22.8207H92.322L92.0092 23.9259H89.7597V26.667H90.4167L93.1411 26.5801L92.7395 27.7722H88.5258L88.6338 24.7968V22.9007L88.5258 19.9254H92.7395L93.1411 21.1174L90.4167 21.0306H89.7597ZM58.531 8.74178L56.1863 8.74497H56.0779L56.1863 11.6108V13.765L56.0779 16.6297H58.5306C61.5048 16.6297 61.8857 14.5216 61.8857 12.6849C61.8857 10.8482 61.5044 8.74178 58.531 8.74178ZM58.531 15.528H57.3134V9.84699H58.531C59.9772 9.84699 60.7609 10.2992 60.7609 12.6865C60.7609 15.0738 59.9752 15.526 58.531 15.526V15.5276V15.528ZM94.1391 12.7172C94.1391 10.306 95.4886 8.62146 97.4237 8.62146C98.5373 8.62146 99.4457 9.08721 100.055 9.996L99.1763 10.7335C98.7146 10.0131 98.1783 9.72508 97.4205 9.72508C96.1504 9.72508 95.2631 10.955 95.2631 12.7156C95.2631 14.4882 96.2197 15.726 97.5902 15.726C98.0197 15.7298 98.4415 15.6126 98.8074 15.3878C98.8074 13.8304 98.6942 12.5188 98.6942 12.5188H99.9333V15.895L99.7636 16.0583C99.7305 16.0894 98.9333 16.8309 97.5934 16.8309C95.591 16.8309 94.1391 15.1005 94.1391 12.7152V12.7172ZM67.2874 21.0836V24.957C67.2934 26.459 67.3954 27.7937 67.3954 27.7937H66.0539C66.0539 27.7937 66.1559 26.4586 66.1615 24.957V21.0836C64.8025 21.0836 63.6574 21.1704 63.6574 21.1704L64.0586 19.9783H69.3902L69.7918 21.1704C69.7918 21.1704 68.6492 21.0836 67.2874 21.0836ZM46.2601 19.9015C46.2601 19.9015 45.7788 21.2919 45.3541 22.876L44.8155 24.8892C44.5665 25.8473 44.3671 26.8175 44.2178 27.7961H42.0628C42.0628 27.7961 41.8708 26.4447 41.4731 24.9187L40.7934 22.3784C40.409 21.011 40.0245 19.9015 40.0245 19.9015H41.4755C41.6281 20.9027 41.8333 21.8955 42.0899 22.876L43.1405 26.8008L44.2816 22.5358C44.6374 21.1122 44.8087 19.9015 44.8087 19.9015H46.2601Z" fill="#333333"/>
<defs>
<clipPath id="clip0_241_2048">
<rect width="81.2772" height="35.8576" fill="white" transform="translate(0.0791016 0.388184)"/>
</clipPath>
</defs>
</svg>
