<svg width="61" height="61" viewBox="0 0 61 61" fill="none" xmlns="http://www.w3.org/2000/svg">
<g clip-path="url(#clip0_241_1504)">
<path d="M60.0396 0.316895H0.0395508V60.3169H60.0396V0.316895Z" fill="#80FFDE"/>
<path d="M29.9608 32.9316C31.2401 32.9316 32.4628 32.6919 33.5891 32.2551C34.5538 31.881 35.4467 31.3628 36.2413 30.7252L35.133 27.9315L31.8278 19.6026H28.2515L24.902 28.0443L23.8003 30.8209C24.577 31.4244 25.4453 31.917 26.3789 32.2731C27.4928 32.6985 28.6994 32.9316 29.9608 32.9316ZM29.9608 22.8396L32.5733 29.6197C31.7627 29.9342 30.8821 30.1085 29.9608 30.1085C29.0519 30.1085 28.1835 29.9399 27.3823 29.6339L29.9608 22.8396Z" fill="#121212"/>
<path d="M39.467 38.8588C38.5798 39.3893 37.6453 39.8477 36.6711 40.2257L37.3987 42.1024H40.7539L39.467 38.8588Z" fill="#121212"/>
<path d="M37.3431 33.5027C36.5049 34.0872 35.5941 34.5751 34.6275 34.9502C33.18 35.5111 31.6068 35.8199 29.9617 35.8199C28.3394 35.8199 26.787 35.5196 25.3565 34.9739C24.4144 34.6149 23.5254 34.1488 22.7043 33.5899L21.645 36.2585L19.3254 42.1025H22.6485L24.3549 37.6065C26.0963 38.2715 27.9861 38.6363 29.9598 38.6363C31.9639 38.6363 33.8801 38.2602 35.6423 37.5762C36.6126 37.2002 37.5367 36.7303 38.4032 36.178L37.3431 33.5027Z" fill="#121212"/>
</g>
<defs>
<clipPath id="clip0_241_1504">
<rect width="60" height="60" fill="white" transform="translate(0.0395508 0.316895)"/>
</clipPath>
</defs>
</svg>
