<svg width="26" height="19" viewBox="0 0 26 19" fill="none" xmlns="http://www.w3.org/2000/svg">
<path d="M9.71875 0.796875H2.6875C2.25238 0.796875 1.83508 0.969726 1.5274 1.2774C1.21973 1.58508 1.04688 2.00238 1.04688 2.4375V9.9375C1.04688 10.3726 1.21973 10.7899 1.5274 11.0976C1.83508 11.4053 2.25238 11.5781 2.6875 11.5781H9.95312V12.75C9.95312 13.8067 9.53334 14.8202 8.78613 15.5674C8.03891 16.3146 7.02547 16.7344 5.96875 16.7344C5.78227 16.7344 5.60343 16.8085 5.47157 16.9403C5.3397 17.0722 5.26562 17.251 5.26562 17.4375C5.26562 17.624 5.3397 17.8028 5.47157 17.9347C5.60343 18.0665 5.78227 18.1406 5.96875 18.1406C7.39786 18.1388 8.76791 17.5702 9.77844 16.5597C10.789 15.5492 11.3575 14.1791 11.3594 12.75V2.4375C11.3594 2.00238 11.1865 1.58508 10.8788 1.2774C10.5712 0.969726 10.1539 0.796875 9.71875 0.796875ZM9.95312 10.1719H2.6875C2.62534 10.1719 2.56573 10.1472 2.52177 10.1032C2.47782 10.0593 2.45312 9.99966 2.45312 9.9375V2.4375C2.45312 2.37534 2.47782 2.31573 2.52177 2.27177C2.56573 2.22782 2.62534 2.20312 2.6875 2.20312H9.71875C9.78091 2.20312 9.84052 2.22782 9.88448 2.27177C9.92843 2.31573 9.95312 2.37534 9.95312 2.4375V10.1719ZM23.3125 0.796875H16.2812C15.8461 0.796875 15.4288 0.969726 15.1212 1.2774C14.8135 1.58508 14.6406 2.00238 14.6406 2.4375V9.9375C14.6406 10.3726 14.8135 10.7899 15.1212 11.0976C15.4288 11.4053 15.8461 11.5781 16.2812 11.5781H23.5469V12.75C23.5469 13.8067 23.1271 14.8202 22.3799 15.5674C21.6327 16.3146 20.6192 16.7344 19.5625 16.7344C19.376 16.7344 19.1972 16.8085 19.0653 16.9403C18.9335 17.0722 18.8594 17.251 18.8594 17.4375C18.8594 17.624 18.9335 17.8028 19.0653 17.9347C19.1972 18.0665 19.376 18.1406 19.5625 18.1406C20.9916 18.1388 22.3617 17.5702 23.3722 16.5597C24.3827 15.5492 24.9513 14.1791 24.9531 12.75V2.4375C24.9531 2.00238 24.7803 1.58508 24.4726 1.2774C24.1649 0.969726 23.7476 0.796875 23.3125 0.796875ZM23.5469 10.1719H16.2812C16.2191 10.1719 16.1595 10.1472 16.1155 10.1032C16.0716 10.0593 16.0469 9.99966 16.0469 9.9375V2.4375C16.0469 2.37534 16.0716 2.31573 16.1155 2.27177C16.1595 2.22782 16.2191 2.20312 16.2812 2.20312H23.3125C23.3747 2.20312 23.4343 2.22782 23.4782 2.27177C23.5222 2.31573 23.5469 2.37534 23.5469 2.4375V10.1719Z" fill="#D32F2F" stroke="#D32F2F"/>
</svg>
